<svg xmlns="http://www.w3.org/2000/svg" viewBox="0 0 120 36" fill="none">
  <rect width="120" height="36" rx="4" fill="#000"/>
  <path d="M45.7 11.5c-.7.8-1.8 1.4-2.9 1.3-.1-1.1.3-2.3.9-3 .6-.8 1.7-1.4 2.7-1.4.1 1.1-.2 2.3-.7 3.1zm1 1.6c-1.5-.1-2.8.9-3.5.9-.7 0-1.8-.8-3-.8-2.3 0-4.4 1.9-4.4 4.7 0 1.9.6 3.9 1.9 5.2.9 1.3 1.9 2.6 3.3 2.6 1.3 0 1.8-.8 3.5-.8 1.7 0 2.2.8 3.6.8 1.4 0 2.4-1.3 3.3-2.6.6-.8.8-1.7 1-2.6-2.7-1-3.1-4.7-.5-6-.9-1.3-2.3-2.1-3.7-2-1.1 0-2.3.6-3 .6z" fill="#fff"/>
  <text x="62" y="24" font-family="Arial,Helvetica,sans-serif" font-weight="500" font-size="18" fill="#fff">Pay</text>
</svg>
